<?xml version="1.0" encoding="UTF-8"?>
<svg id="Ebene_1" data-name="Ebene 1" xmlns="http://www.w3.org/2000/svg" xmlns:xlink="http://www.w3.org/1999/xlink" version="1.1" viewBox="0 0 153.8 98">
  <defs>
    <style>
      .cls-1 {
        fill: #003087;
      }

      .cls-1, .cls-2, .cls-3, .cls-4 {
        stroke-width: 0px;
      }

      .cls-5 {
        mask: url(#mask);
      }

      .cls-2 {
        fill: #1d1d1b;
      }

      .cls-3 {
        fill: #101820;
      }

      .cls-4 {
        fill: #fff;
      }
    </style>
    <mask id="mask" x="0" y=".6" width="152.8" height="75.4" maskUnits="userSpaceOnUse">
      <g id="mask0_491_1359" data-name="mask0 491 1359">
        <path class="cls-4" d="M152.8.6H0v75.4h152.8V.6Z"/>
      </g>
    </mask>
  </defs>
  <g class="cls-5">
    <g>
      <path class="cls-1" d="M26.6,6.4c.2.2,13.9,12.4,14,12.5v18.8c-.6-.5-14.3-12.6-14.3-12.6,0,0-21.7,18.6-22.3,19.1v-18.5c.1-.1,22.3-19.1,22.6-19.3M0,23.6v29.7s26.2-22.4,26.4-22.7c.2.2,18.5,16.3,18.5,16.3v-30.2L26.8.6,0,23.6Z"/>
      <path class="cls-3" d="M6.1,72.2h1.7c1.2,0,2.4-.5,2.4-1.9s-1.2-1.9-2.4-1.9h-1.7v3.8h0ZM6.1,64.4h1.6c1.1,0,2.4-.4,2.4-1.8s-1.1-1.8-2.2-1.8h-1.7v3.6ZM0,57.3h10.5c2.9,0,5.8,1,5.8,4.6s-1.2,4-3.5,4.6h0c2.3.4,3.8,2.4,3.8,4.3,0,4.7-3.4,5.2-6.9,5.2H0v-18.8H0Z"/>
      <path class="cls-3" d="M17.2,57.3h6.9s3.1,11.2,3.1,11.2h0l3.1-11.2h6.6s-6.2,18.8-6.2,18.8h-7.6s-6-18.7-6-18.7Z"/>
      <path class="cls-3" d="M45,57.3h-6.4v18.8h6.4v-18.8Z"/>
      <path class="cls-3" d="M50.7,57.5h2.4c.7,0,1.4.2,1.7.6.3.3.5.7.5,1.1h0c0,.9-.5,1.3-1,1.5.7.3,1.3.7,1.3,1.6h0c0,1.2-1,1.9-2.4,1.9h-2.5v-6.8h0ZM54.2,59.4c0-.6-.4-.9-1.2-.9h-1.2v1.9h1.2c.7,0,1.2-.3,1.2-.9h0s0,0,0,0ZM53.2,61.4h-1.4v1.9h1.4c.8,0,1.3-.4,1.3-1h0c0-.6-.5-1-1.3-1Z"/>
      <path class="cls-3" d="M56.6,62.6v-3.4h1.1v3.1c0,.7.3,1.1.9,1.1s1-.4,1-1.1v-3.1h1.1v5.1h-1.1v-.7c-.3.4-.7.8-1.4.8-1,0-1.6-.7-1.6-1.8"/>
      <path class="cls-3" d="M61.9,59.2h1.1v.7c.3-.4.7-.8,1.4-.8,1,0,1.6.7,1.6,1.8v3.4h-1.1v-3.1c0-.7-.3-1.1-.9-1.1s-1,.4-1,1.1v3.1h-1.1v-5.1h0Z"/>
      <path class="cls-3" d="M66.9,61.8h0c0-1.9,1-2.7,2-2.7s1.2.4,1.5.9v-2.6h1.1v7h-1.1v-.8c-.3.5-.8.9-1.5.9s-2-.9-2-2.6ZM70.4,61.8h0c0-1.1-.6-1.7-1.2-1.7s-1.2.6-1.2,1.6h0c0,1.1.5,1.7,1.2,1.7s1.2-.6,1.2-1.6Z"/>
      <path class="cls-3" d="M72.5,61.8h0c0-1.6.9-2.7,2.2-2.7s2.1,1.2,2.1,2.7,0,.2,0,.4h-3.2c0,.9.6,1.3,1.3,1.3s.8-.2,1.2-.5l.6.7c-.5.5-1,.8-1.8.8-1.3,0-2.3-1-2.3-2.6M75.7,61.4c0-.8-.4-1.4-1.1-1.4s-1,.5-1.1,1.4h2.2Z"/>
      <path class="cls-3" d="M77.4,63.7l.5-.8c.5.4,1,.6,1.4.6s.7-.2.7-.6h0c0-.4-.4-.5-1-.8-.8-.3-1.4-.7-1.4-1.5h0c0-.9.7-1.5,1.7-1.5s1.2.2,1.7.5l-.5.8c-.4-.3-.8-.5-1.2-.5s-.6.2-.6.5h0c0,.4.4.5,1,.8.8.4,1.4.7,1.4,1.5h0c0,1-.8,1.6-1.7,1.6s-1.3-.2-1.9-.7Z"/>
      <path class="cls-3" d="M82.2,60.1h-.6v-.9h.6v-.4c0-.5.1-.9.4-1.2.3-.2.6-.4,1.1-.4s.6,0,.8.1v.9c-.2,0-.3,0-.5,0-.4,0-.6.2-.6.7v.3h1.1v.9h-1.1v4.2h-1.1v-4.2Z"/>
      <path class="cls-3" d="M84.7,62.8h0c0-1.2.8-1.7,1.8-1.7s.8,0,1.2.2v-.2c0-.7-.4-1-1.1-1s-.9.2-1.2.3l-.3-.9c.5-.2,1-.4,1.7-.4s1.2.2,1.5.5c.3.3.5.8.5,1.5v3.2h-1.1v-.6c-.3.4-.8.7-1.4.7s-1.6-.6-1.6-1.6M87.8,62.6v-.5c-.3,0-.6-.2-.9-.2-.6,0-1,.3-1,.9h0c0,.5.3.8.8.8.6,0,1.1-.4,1.1-1"/>
      <path class="cls-3" d="M89.8,61.8h0c0-1.6,1-2.7,2.3-2.7s1.2.3,1.6.7l-.6.8c-.3-.3-.6-.5-1-.5-.7,0-1.2.7-1.2,1.7h0c0,1,.5,1.7,1.3,1.7.4,0,.8-.2,1-.5l.6.7c-.4.5-.9.8-1.7.8-1.3,0-2.3-1.1-2.3-2.6Z"/>
      <path class="cls-3" d="M94.6,57.3h1.1v2.6c.3-.4.7-.8,1.4-.8s1.6.7,1.6,1.8v3.4h-1.1v-3.1c0-.7-.3-1.1-.9-1.1s-1,.4-1,1.1v3.1h-1.1v-7Z"/>
      <path class="cls-3" d="M99.3,59.2h1.2l1.2,3.7,1.2-3.7h1.1l-1.8,5.2h-1l-1.8-5.2Z"/>
      <path class="cls-3" d="M104.3,61.8h0c0-1.6.9-2.7,2.2-2.7s2.1,1.2,2.1,2.7,0,.2,0,.4h-3.2c0,.9.6,1.3,1.3,1.3s.8-.2,1.2-.5l.6.7c-.5.5-1,.8-1.8.8-1.3,0-2.3-1-2.3-2.6M107.5,61.4c0-.8-.4-1.4-1.1-1.4s-1,.5-1.1,1.4h2.2Z"/>
      <path class="cls-3" d="M109.6,59.2h1.1v1c.3-.7.8-1.1,1.5-1.1v1.2h0c-.9,0-1.5.6-1.5,1.7v2.3h-1.1v-5.1h0Z"/>
      <path class="cls-3" d="M114.1,63.5v.8h-1.1v-7h1.1v2.7c.3-.5.8-.9,1.5-.9,1,0,2,.9,2,2.6h0c0,1.9-1,2.7-2,2.7s-1.2-.4-1.5-.9ZM116.5,61.8h0c0-1.1-.5-1.7-1.2-1.7s-1.2.6-1.2,1.6h0c0,1.1.6,1.7,1.2,1.7s1.2-.6,1.2-1.6Z"/>
      <path class="cls-3" d="M118.4,62.8h0c0-1.2.8-1.7,1.8-1.7s.8,0,1.2.2v-.2c0-.7-.4-1-1.1-1s-.9.2-1.2.3l-.3-.9c.5-.2,1-.4,1.7-.4s1.2.2,1.5.5c.3.3.5.8.5,1.5v3.2h-1.1v-.6c-.3.4-.8.7-1.4.7s-1.6-.6-1.6-1.6M121.4,62.6v-.5c-.3,0-.6-.2-.9-.2-.6,0-1,.3-1,.9h0c0,.5.3.8.8.8.6,0,1.1-.4,1.1-1"/>
      <path class="cls-3" d="M123.6,59.2h1.1v.7c.3-.4.7-.8,1.4-.8s1.6.7,1.6,1.8v3.4h-1.1v-3.1c0-.7-.3-1.1-.9-1.1s-1,.4-1,1.1v3.1h-1.1v-5.1h0Z"/>
      <path class="cls-3" d="M128.7,61.8h0c0-1.9,1-2.7,2-2.7s1.2.4,1.5.9v-2.6h1.1v7h-1.1v-.8c-.3.5-.8.9-1.5.9s-2-.9-2-2.6ZM132.2,61.8h0c0-1.1-.6-1.7-1.2-1.7s-1.2.6-1.2,1.6h0c0,1.1.5,1.7,1.2,1.7s1.2-.6,1.2-1.6Z"/>
      <path class="cls-3" d="M136.5,61.8h0c0-1.9,1-2.7,2-2.7s1.2.4,1.5.9v-2.6h1.1v7h-1.1v-.8c-.3.5-.8.9-1.5.9s-2-.9-2-2.6ZM140,61.8h0c0-1.1-.6-1.7-1.2-1.7s-1.2.6-1.2,1.6h0c0,1.1.5,1.7,1.2,1.7s1.2-.6,1.2-1.6Z"/>
      <path class="cls-3" d="M142.1,61.8h0c0-1.6.9-2.7,2.2-2.7s2.1,1.2,2.1,2.7,0,.2,0,.4h-3.2c0,.9.6,1.3,1.3,1.3s.8-.2,1.2-.5l.6.7c-.5.5-1,.8-1.8.8-1.3,0-2.3-1-2.3-2.6M145.3,61.4c0-.8-.4-1.4-1.1-1.4s-1,.5-1.1,1.4h2.2Z"/>
      <path class="cls-3" d="M147.4,59.2h1.1v1c.3-.7.8-1.1,1.5-1.1v1.2h0c-.9,0-1.5.6-1.5,1.7v2.3h-1.1v-5.1h0Z"/>
      <path class="cls-3" d="M51.9,69.1h-1.1v6.8h1.1v-6.8Z"/>
      <path class="cls-3" d="M53.3,70.8h1.1v.7c.3-.5.7-.8,1.4-.8s1.1.3,1.3.8c.3-.5.8-.8,1.5-.8s1.6.6,1.6,1.8v3.4h-1.1v-3.1c0-.7-.3-1.1-.9-1.1s-.9.4-.9,1.1v3.1h-1.1v-3.1c0-.7-.3-1.1-.9-1.1s-.9.4-.9,1.1v3.1h-1.1v-5.1h0Z"/>
      <path class="cls-3" d="M61.3,70.8h1.1v.7c.3-.5.7-.8,1.4-.8s1.1.3,1.3.8c.3-.5.8-.8,1.5-.8s1.6.6,1.6,1.8v3.4h-1.1v-3.1c0-.7-.3-1.1-.9-1.1s-.9.4-.9,1.1v3.1h-1.1v-3.1c0-.7-.3-1.1-.9-1.1s-.9.4-.9,1.1v3.1h-1.1v-5.1h0Z"/>
      <path class="cls-3" d="M69.1,73.4h0c0-1.6,1-2.7,2.4-2.7s2.3,1.1,2.3,2.6h0c0,1.6-1,2.7-2.3,2.7s-2.4-1.1-2.4-2.6M72.8,73.4h0c0-1-.5-1.7-1.3-1.7s-1.3.7-1.3,1.7h0c0,1,.5,1.7,1.3,1.7s1.3-.7,1.3-1.7Z"/>
      <path class="cls-3" d="M76,75.1v.8h-1.1v-7h1.1v2.7c.3-.5.8-.9,1.5-.9,1,0,2,.9,2,2.6h0c0,1.9-1,2.7-2,2.7s-1.2-.4-1.5-.9ZM78.3,73.4h0c0-1.1-.5-1.7-1.2-1.7s-1.2.6-1.2,1.6h0c0,1.1.6,1.7,1.2,1.7s1.2-.6,1.2-1.6Z"/>
      <path class="cls-3" d="M80.5,69h1.2v1.1h-1.2v-1.1ZM80.5,70.8h1.1v5.1h-1.1v-5.1Z"/>
      <path class="cls-3" d="M84.1,68.9h-1.1v7h1.1v-7Z"/>
      <path class="cls-3" d="M85.4,69h1.2v1.1h-1.2v-1.1ZM85.4,70.8h1.1v5.1h-1.1v-5.1Z"/>
      <path class="cls-3" d="M87.6,73.4h0c0-1.6.9-2.7,2.2-2.7s2.1,1.2,2.1,2.7,0,.2,0,.4h-3.2c0,.9.6,1.3,1.3,1.3s.8-.2,1.2-.5l.6.7c-.5.5-1,.8-1.8.8-1.3,0-2.3-1-2.3-2.6M90.8,73c0-.8-.4-1.4-1.1-1.4s-1,.5-1.1,1.4h2.2Z"/>
      <path class="cls-3" d="M92.9,70.8h1.1v.7c.3-.4.7-.8,1.4-.8s1.6.7,1.6,1.8v3.4h-1.1v-3.1c0-.7-.3-1.1-.9-1.1s-1,.4-1,1.1v3.1h-1.1v-5.1h0Z"/>
      <path class="cls-3" d="M97.6,70.8h1.2l1.2,3.7,1.2-3.7h1.1l-1.8,5.2h-1l-1.8-5.2Z"/>
      <path class="cls-3" d="M102.5,73.4h0c0-1.6.9-2.7,2.2-2.7s2.1,1.2,2.1,2.7,0,.2,0,.4h-3.2c0,.9.6,1.3,1.3,1.3s.8-.2,1.2-.5l.6.7c-.5.5-1,.8-1.8.8-1.3,0-2.3-1-2.3-2.6M105.8,73c0-.8-.4-1.4-1.1-1.4s-1,.5-1.1,1.4h2.2Z"/>
      <path class="cls-3" d="M107.8,70.8h1.1v1c.3-.7.8-1.1,1.5-1.1v1.2h0c-.9,0-1.5.6-1.5,1.7v2.3h-1.1v-5.1h0Z"/>
      <path class="cls-3" d="M110.9,70.8h1.1l.9,3.5.9-3.5h.9l.9,3.5.9-3.5h1.1l-1.4,5.2h-1l-1-3.4-1,3.4h-1l-1.4-5.2Z"/>
      <path class="cls-3" d="M118.2,74.4h0c0-1.2.8-1.7,1.8-1.7s.8,0,1.2.2v-.2c0-.7-.4-1-1.1-1s-.9.2-1.2.3l-.3-.9c.5-.2,1-.4,1.7-.4s1.2.2,1.5.5c.3.3.5.8.5,1.5v3.2h-1.1v-.6c-.3.4-.8.7-1.4.7s-1.6-.6-1.6-1.6M121.2,74.2v-.5c-.3,0-.6-.2-.9-.2-.6,0-1,.3-1,.9h0c0,.5.3.8.8.8.6,0,1.1-.4,1.1-1"/>
      <path class="cls-3" d="M124.6,68.9h-1.1v7h1.1v-7Z"/>
      <path class="cls-3" d="M126.1,74.7v-2.9h-.5v-.9h.5v-1.4h1.1v1.4h1.1v.9h-1.1v2.7c0,.4.2.6.5.6s.4,0,.6-.1v.9c-.3.1-.5.2-.9.2-.8,0-1.3-.3-1.3-1.3Z"/>
      <path class="cls-3" d="M128.9,73.4h0c0-1.6.9-2.7,2.2-2.7s2.1,1.2,2.1,2.7,0,.2,0,.4h-3.2c0,.9.6,1.3,1.3,1.3s.8-.2,1.2-.5l.6.7c-.5.5-1,.8-1.8.8-1.3,0-2.3-1-2.3-2.6M132.2,73c0-.8-.4-1.4-1.1-1.4s-1,.5-1.1,1.4h2.2Z"/>
      <path class="cls-3" d="M134.2,70.8h1.1v1c.3-.7.8-1.1,1.5-1.1v1.2h0c-.9,0-1.5.6-1.5,1.7v2.3h-1.1v-5.1h0Z"/>
      <path class="cls-3" d="M139.7,73.4h0c0-1.6.9-2.7,2.2-2.7s2.1,1.2,2.1,2.7,0,.2,0,.4h-3.2c0,.9.6,1.3,1.3,1.3s.8-.2,1.2-.5l.6.7c-.5.5-1,.8-1.8.8-1.3,0-2.3-1-2.3-2.6M142.9,73c0-.8-.4-1.4-1.1-1.4s-1,.5-1.1,1.4h2.2Z"/>
      <path class="cls-3" d="M146.1,74.6h-1.2v1.3h1.2v-1.3Z"/>
      <path class="cls-3" d="M146,69.1h1.2l1.7,5.1,1.7-5.1h1.2l-2.3,6.8h-1l-2.3-6.8Z"/>
      <path class="cls-3" d="M152.8,74.6h-1.2v1.3h1.2v-1.3Z"/>
    </g>
  </g>
  <rect class="cls-2" x="0" y="84" width="153.1" height=".5"/>
  <g>
    <path class="cls-1" d="M2.1,97.5H-.1v-6.2h2.2c1.8,0,3,1.3,3,3.1h0c0,1.8-1.2,3.1-3,3.1ZM3.8,94.4c0-1.1-.7-1.9-1.7-1.9h-.9v3.7h.9c1,0,1.7-.8,1.7-1.8h0Z"/>
    <path class="cls-1" d="M6,92.2v-1.2h1.3v1.2h-1.3ZM6,97.5v-4.7h1.2v4.7h-1.2Z"/>
    <path class="cls-1" d="M12.3,95.6h-3c.1.6.5.9,1,.9s.7-.1,1-.5l.7.7c-.4.5-1,.9-1.7.9-1.3,0-2.2-1-2.2-2.4h0c0-1.4.9-2.5,2.1-2.5s2.1,1.2,2.1,2.6h0c0,.2,0,.2,0,.4ZM10.2,93.7c-.5,0-.8.4-.9,1h1.8c0-.6-.4-1-.9-1Z"/>
    <path class="cls-1" d="M15.7,97.5v-6.2h1.2v6.2h-1.2Z"/>
    <path class="cls-1" d="M23.4,97.5v-2.6c0-.6-.3-1-.7-1s-.7.3-.7,1v2.6h-1.2v-2.6c0-.6-.3-1-.7-1s-.7.3-.7,1v2.6h-1.2v-4.7h1.2v.7c.3-.4.6-.8,1.3-.8s1,.3,1.2.8c.4-.5.8-.8,1.4-.8.9,0,1.4.6,1.4,1.7v3.1h-1.2Z"/>
    <path class="cls-1" d="M31,97.5v-2.6c0-.6-.3-1-.7-1s-.7.3-.7,1v2.6h-1.2v-2.6c0-.6-.3-1-.7-1s-.7.3-.7,1v2.6h-1.2v-4.7h1.2v.7c.3-.4.6-.8,1.3-.8s1,.3,1.2.8c.4-.5.8-.8,1.4-.8.9,0,1.4.6,1.4,1.7v3.1h-1.2Z"/>
    <path class="cls-1" d="M35.3,97.6c-1.3,0-2.3-1.1-2.3-2.4h0c0-1.4,1-2.5,2.3-2.5s2.3,1.1,2.3,2.4h0c0,1.4-1,2.5-2.3,2.5ZM36.4,95.1c0-.7-.5-1.3-1.1-1.3s-1.1.6-1.1,1.3h0c0,.7.5,1.3,1.1,1.3s1.1-.6,1.1-1.3h0Z"/>
    <path class="cls-1" d="M41,97.5c-.6,0-1-.3-1.3-.7v.6h-1.2v-6.4h1.2v2.4c.3-.4.7-.8,1.3-.8,1,0,1.9.9,1.9,2.4h0c0,1.6-.9,2.5-1.9,2.5ZM41.7,95.1c0-.8-.5-1.3-1-1.3s-1,.5-1,1.3h0c0,.8.5,1.3,1,1.3s1-.5,1-1.3h0Z"/>
    <path class="cls-1" d="M43.8,92.2v-1.2h1.3v1.2h-1.3ZM43.8,97.5v-4.7h1.2v4.7h-1.2Z"/>
    <path class="cls-1" d="M46.2,97.5v-6.4h1.2v6.4h-1.2Z"/>
    <path class="cls-1" d="M48.5,92.2v-1.2h1.3v1.2h-1.3ZM48.5,97.5v-4.7h1.2v4.7h-1.2Z"/>
    <path class="cls-1" d="M54.8,95.6h-3c.1.6.5.9,1,.9s.7-.1,1-.5l.7.7c-.4.5-1,.9-1.7.9-1.3,0-2.2-1-2.2-2.4h0c0-1.4.9-2.5,2.1-2.5s2.1,1.2,2.1,2.6h0c0,.2,0,.2,0,.4ZM52.7,93.7c-.5,0-.8.4-.9,1h1.8c0-.6-.4-1-.9-1Z"/>
    <path class="cls-1" d="M58.4,97.5v-2.6c0-.6-.3-1-.7-1s-.8.3-.8,1v2.6h-1.2v-4.7h1.2v.7c.3-.4.6-.8,1.3-.8.9,0,1.5.7,1.5,1.8v3.1h-1.2Z"/>
    <path class="cls-1" d="M62.8,97.5h-1.1l-1.7-4.8h1.3l1,3.2,1-3.2h1.3l-1.7,4.8Z"/>
    <path class="cls-1" d="M68.9,95.6h-3c.1.6.5.9,1,.9s.7-.1,1-.5l.7.7c-.4.5-1,.9-1.7.9-1.3,0-2.2-1-2.2-2.4h0c0-1.4.9-2.5,2.1-2.5s2.1,1.2,2.1,2.6h0c0,.2,0,.2,0,.4ZM66.8,93.7c-.5,0-.8.4-.9,1h1.8c0-.6-.4-1-.9-1Z"/>
    <path class="cls-1" d="M72.3,94c-.8,0-1.3.5-1.3,1.7v1.7h-1.2v-4.7h1.2v1c.2-.7.6-1.1,1.4-1v1.4h0Z"/>
    <path class="cls-1" d="M77.8,97.5h-1.1l-.8-2.9-.8,2.9h-1.1l-1.3-4.8h1.2l.7,2.9.8-2.9h1l.8,2.9.7-2.9h1.2l-1.3,4.8Z"/>
    <path class="cls-1" d="M82.2,97.5v-.5c-.3.4-.7.6-1.3.6s-1.5-.5-1.5-1.4h0c0-1.1.7-1.5,1.7-1.5s.7,0,1,.2h0c0-.6-.3-.9-.9-.9s-.8,0-1.2.3l-.3-1c.5-.2.9-.4,1.7-.4,1.3,0,1.9.8,1.9,2v2.7h-1.2ZM82.2,95.5c-.2-.1-.5-.2-.8-.2-.5,0-.8.2-.8.7h0c0,.4.3.6.7.6.6,0,.9-.3.9-.8v-.2Z"/>
    <path class="cls-1" d="M84.4,97.5v-6.4h1.2v6.4h-1.2Z"/>
    <path class="cls-1" d="M88.2,97.5c-.7,0-1.2-.3-1.2-1.4v-2.2h-.5v-1.1h.5v-1.2h1.2v1.2h1v1.1h-1v2c0,.3.1.5.4.5s.4,0,.6-.2v1.1c-.3.2-.6.3-1,.3Z"/>
    <path class="cls-1" d="M93.8,95.6h-3c.1.6.5.9,1,.9s.7-.1,1-.5l.7.7c-.4.5-1,.9-1.7.9-1.3,0-2.2-1-2.2-2.4h0c0-1.4.9-2.5,2.1-2.5s2.1,1.2,2.1,2.6h0c0,.2,0,.2,0,.4ZM91.8,93.7c-.5,0-.8.4-.9,1h1.8c0-.6-.4-1-.9-1Z"/>
    <path class="cls-1" d="M97.2,94c-.8,0-1.3.5-1.3,1.7v1.7h-1.2v-4.7h1.2v1c.2-.7.6-1.1,1.4-1v1.4h0Z"/>
    <path class="cls-1" d="M102.6,97.5h-2.2v-6.2h2.2c1.8,0,3,1.3,3,3.1h0c0,1.8-1.2,3.1-3,3.1ZM104.3,94.4c0-1.1-.7-1.9-1.7-1.9h-.9v3.7h.9c1,0,1.7-.8,1.7-1.8h0Z"/>
    <path class="cls-1" d="M110.5,95.6h-3c.1.6.5.9,1,.9s.7-.1,1-.5l.7.7c-.4.5-1,.9-1.7.9-1.3,0-2.2-1-2.2-2.4h0c0-1.4.9-2.5,2.1-2.5s2.1,1.2,2.1,2.6h0c0,.2,0,.2,0,.4ZM108.4,93.7c-.5,0-.8.4-.9,1h1.8c0-.6-.4-1-.9-1Z"/>
    <path class="cls-1" d="M114,97.5v-.7c-.3.4-.6.8-1.3.8-.9,0-1.5-.7-1.5-1.8v-3.1h1.2v2.6c0,.6.3,1,.7,1s.8-.3.8-1v-2.6h1.2v4.7h-1.2Z"/>
    <path class="cls-1" d="M117.7,97.5c-.7,0-1.2-.3-1.2-1.4v-2.2h-.5v-1.1h.5v-1.2h1.2v1.2h1v1.1h-1v2c0,.3.1.5.4.5s.4,0,.6-.2v1.1c-.3.2-.5.3-1,.3Z"/>
    <path class="cls-1" d="M121,97.5c-.6,0-1.3-.2-1.8-.7l.5-.9c.5.4.9.6,1.3.6s.5-.1.5-.4h0c0-.3-.4-.4-.9-.6-.6-.2-1.3-.5-1.3-1.4h0c0-1,.7-1.5,1.6-1.5s1.1.2,1.6.5l-.5.9c-.4-.3-.8-.4-1.2-.4s-.4.1-.4.3h0c0,.3.4.4.9.6.6.2,1.3.5,1.3,1.4h0c0,1.1-.7,1.5-1.6,1.5Z"/>
    <path class="cls-1" d="M125.5,97.6c-1.3,0-2.2-1.1-2.2-2.4h0c0-1.4.9-2.5,2.2-2.5s1.3.3,1.7.8l-.7.9c-.3-.3-.5-.5-1-.5s-1,.6-1,1.3h0c0,.7.4,1.3,1.1,1.3s.7-.2,1-.5l.7.8c-.4.5-.9.9-1.7.9Z"/>
    <path class="cls-1" d="M130.7,97.5v-2.6c0-.6-.3-1-.7-1s-.8.3-.8,1v2.6h-1.2v-6.4h1.2v2.4c.3-.4.6-.8,1.3-.8.9,0,1.5.7,1.5,1.8v3.1h-1.2Z"/>
    <path class="cls-1" d="M133,97.5v-6.4h1.2v6.4h-1.2Z"/>
    <path class="cls-1" d="M137.8,97.5v-.5c-.3.4-.7.6-1.3.6s-1.5-.5-1.5-1.4h0c0-1.1.7-1.5,1.7-1.5s.7,0,1,.2h0c0-.6-.3-.9-.9-.9s-.8,0-1.2.3l-.3-1c.5-.2.9-.4,1.7-.4,1.3,0,1.9.8,1.9,2v2.7h-1.2ZM137.8,95.5c-.2-.1-.5-.2-.8-.2-.5,0-.8.2-.8.7h0c0,.4.3.6.7.6.6,0,.9-.3.9-.8v-.2Z"/>
    <path class="cls-1" d="M142.6,97.5v-2.6c0-.6-.3-1-.7-1s-.8.3-.8,1v2.6h-1.2v-4.7h1.2v.7c.3-.4.6-.8,1.3-.8.9,0,1.5.7,1.5,1.8v3.1h-1.2Z"/>
    <path class="cls-1" d="M148,97.5v-.7c-.3.4-.7.8-1.3.8-1,0-1.9-.9-1.9-2.4h0c0-1.6.9-2.5,1.9-2.5s1,.3,1.3.7v-2.3h1.2v6.4h-1.2ZM148,95.1c0-.8-.5-1.3-1-1.3s-1,.5-1,1.3h0c0,.8.5,1.3,1,1.3s1-.5,1-1.3h0Z"/>
    <path class="cls-1" d="M151.7,97.5c-.6,0-1.3-.2-1.8-.7l.5-.9c.5.4.9.6,1.3.6s.5-.1.5-.4h0c0-.3-.4-.4-.9-.6-.6-.2-1.3-.5-1.3-1.4h0c0-1,.7-1.5,1.6-1.5s1.1.2,1.6.5l-.5.9c-.4-.3-.8-.4-1.2-.4s-.4.1-.4.3h0c0,.3.4.4.9.6.6.2,1.3.5,1.3,1.4h0c0,1.1-.7,1.5-1.6,1.5Z"/>
  </g>
</svg>